<?xml version="1.0" encoding="UTF-8" standalone="no"?>
<!-- Created with Inkscape (http://www.inkscape.org/) -->
<svg xmlns:i="http://ns.adobe.com/AdobeIllustrator/10.0/" xmlns:dc="http://purl.org/dc/elements/1.1/" xmlns:cc="http://creativecommons.org/ns#" xmlns:rdf="http://www.w3.org/1999/02/22-rdf-syntax-ns#" xmlns:svg="http://www.w3.org/2000/svg" xmlns="http://www.w3.org/2000/svg" xmlns:sodipodi="http://sodipodi.sourceforge.net/DTD/sodipodi-0.dtd" xmlns:inkscape="http://www.inkscape.org/namespaces/inkscape" width="736.94904" height="866.65625" id="svg8661" sodipodi:version="0.32" inkscape:version="0.46" version="1.0" sodipodi:docbase="C:\Documents and Settings\HP_Administrator\Desktop\share\SVG Projects\upload or product" sodipodi:docname="Arsenal_FC.svg" inkscape:output_extension="org.inkscape.output.svg.inkscape">
  <defs id="defs8663">
    <inkscape:perspective sodipodi:type="inkscape:persp3d" inkscape:vp_x="0 : 433.32812 : 1" inkscape:vp_y="0 : 1000 : 0" inkscape:vp_z="736.94904 : 433.32812 : 1" inkscape:persp3d-origin="368.47452 : 288.88542 : 1" id="perspective74"/>
  </defs>
  <sodipodi:namedview id="base" pagecolor="#ffffff" bordercolor="#666666" borderopacity="1.0" gridtolerance="10000" guidetolerance="10" objecttolerance="10" inkscape:pageopacity="0.0" inkscape:pageshadow="2" inkscape:zoom="0.24575436" inkscape:cx="259.11312" inkscape:cy="475.04072" inkscape:document-units="px" inkscape:current-layer="layer1" inkscape:window-width="1024" inkscape:window-height="712" inkscape:window-x="-4" inkscape:window-y="-4" showgrid="false"/>
  <metadata id="metadata8666">
    <rdf:RDF>
      <cc:Work rdf:about="">
        <dc:format>image/svg+xml</dc:format>
        <dc:type rdf:resource="http://purl.org/dc/dcmitype/StillImage"/>
      </cc:Work>
    </rdf:RDF>
  </metadata>
  <g inkscape:label="Layer 1" inkscape:groupmode="layer" id="layer1" transform="translate(-6.52549, -99.0341)">
    <g id="g2623">
      <path id="path6134" d="M 375.01365,99.534058 C 287.1757,99.534057 125.22279,122.2395 42.6699,170.19031 C -65.936261,554.98317 81.797782,816.70685 375.01365,965.19031 C 668.22952,816.70685 815.93228,553.68628 707.32615,170.19031 C 624.77326,122.2395 462.85162,99.53406 375.01365,99.534058 z" style="fill: rgb(157, 134, 74); fill-opacity: 1; fill-rule: evenodd; stroke: rgb(157, 134, 74); stroke-width: 1px; stroke-linecap: butt; stroke-linejoin: miter; stroke-opacity: 1;"/>
      <path id="path5154" d="M 375.01365,124.28406 C 288.68256,124.28406 191.55318,135.30622 64.2949,187.22156 C -30.445688,523.11036 79.465042,792.34333 375.01365,939.09656 C 670.56226,792.34333 780.44172,523.11036 685.70115,187.22156 C 558.44287,135.30622 461.34476,124.28406 375.01365,124.28406 z" style="fill: rgb(1, 47, 115); fill-opacity: 1; fill-rule: evenodd; stroke: rgb(1, 47, 115); stroke-width: 1px; stroke-linecap: butt; stroke-linejoin: miter; stroke-opacity: 1;"/>
      <path id="path4180" d="M 374.58241,123.98899 C 288.68921,123.98899 196.47731,136.67256 113.30121,168.20774 C 26.999416,512.1297 90.623716,763.24636 375.08241,938.80149 L 374.58241,123.98899 z M 375.08241,938.80149 C 659.54116,763.24636 723.13426,512.1297 636.83236,168.20774 C 553.65631,136.67256 461.47571,123.98899 375.58241,123.98899 L 375.08241,938.80149 z" style="fill: rgb(255, 255, 255); fill-opacity: 1; fill-rule: evenodd; stroke: rgb(255, 255, 255); stroke-width: 1px; stroke-linecap: butt; stroke-linejoin: miter; stroke-opacity: 1;"/>
      <path style="fill: rgb(239, 0, 7); fill-opacity: 1; fill-rule: evenodd; stroke: rgb(239, 0, 7); stroke-width: 1px; stroke-linecap: butt; stroke-linejoin: miter; stroke-opacity: 1;" d="M 375.08041,123.8806 C 288.74931,123.8806 201.30955,136.9202 130.20635,161.72619 C 40.83615,522.13537 112.61325,765.59262 375.21835,931.92635 L 375.08041,123.8806 z" id="path4174" sodipodi:nodetypes="cccc"/>
      <path sodipodi:nodetypes="cccc" id="path4176" d="M 375.28732,123.8806 C 461.61832,123.8806 549.12715,136.9202 620.23031,161.72619 C 709.60047,522.13537 637.82339,765.59262 375.21835,931.92635 L 375.28732,123.8806 z" style="fill: rgb(219, 0, 7); fill-opacity: 1; fill-rule: evenodd; stroke: rgb(219, 0, 7); stroke-width: 1px; stroke-linecap: butt; stroke-linejoin: miter; stroke-opacity: 1;"/>
      <g id="g2571">
        <path sodipodi:nodetypes="ccccc" id="path4139" d="M 263.49503,667.8727 C 225.38232,693.94513 195.05609,703.36451 159.82567,712.67538 L 138.54763,679.68384 C 170.90361,663.32641 204.41631,640.53296 238.16273,607.4567 C 241.05444,639.55168 255.93108,662.25346 263.49503,667.8727 z" style="fill: rgb(255, 255, 255); fill-opacity: 1; fill-rule: evenodd; stroke: none; stroke-width: 0.3; stroke-linecap: butt; stroke-linejoin: miter; stroke-miterlimit: 4; stroke-dasharray: none; stroke-opacity: 1;"/>
        <path style="fill: rgb(157, 134, 74); fill-opacity: 1; fill-rule: evenodd; stroke: none; stroke-width: 0.3; stroke-linecap: butt; stroke-linejoin: miter; stroke-miterlimit: 4; stroke-dasharray: none; stroke-opacity: 1;" d="M 258.27423,666.44698 C 222.15727,691.28305 171.75566,708.52335 114.06329,717.0255 L 102.33599,699.14528 C 151.68441,680.65482 199.38126,653.04168 236.3793,614.34151 C 241.97804,639.13527 250.51512,655.60402 258.27423,666.44698 z" id="path2197" sodipodi:nodetypes="ccccc"/>
        <path sodipodi:type="arc" style="fill: rgb(255, 255, 255); fill-opacity: 1; stroke: none; stroke-width: 0.4; stroke-miterlimit: 4; stroke-dasharray: none; stroke-dashoffset: 0pt; stroke-opacity: 1;" id="path18808" sodipodi:cx="103.12205" sodipodi:cy="449.50473" sodipodi:rx="17.681753" sodipodi:ry="17.681753" d="M 120.8038,449.50473 A 17.681753,17.681753 0 1 1 85.440294,449.50473 A 17.681753,17.681753 0 1 1 120.8038,449.50473 z" transform="matrix(1.41862, 0, 0, 1.41862, -9.43861, -122.809)"/>
        <path sodipodi:nodetypes="ccccc" id="path15893" d="M 159.28647,465.45673 L 159.28647,560.00347 L 233.79443,560.00347 C 238.67558,528.36588 256.71534,494.69752 297.49503,465.45673 L 159.28647,465.45673" style="fill: rgb(255, 255, 255); fill-opacity: 1; fill-rule: evenodd; stroke: none; stroke-width: 0.43498; stroke-linecap: butt; stroke-linejoin: miter; stroke-miterlimit: 4; stroke-dasharray: none; stroke-opacity: 1;"/>
        <path transform="matrix(1.20576, 0, 0, 1.11397, -0.983659, -43.7959)" sodipodi:open="true" sodipodi:end="4.7192496" sodipodi:start="1.5583845" d="M 135.37805,542.02207 A 25.005775,42.43681 0 1 1 135.23924,457.15272" sodipodi:ry="42.43681" sodipodi:rx="25.005775" sodipodi:cy="499.58853" sodipodi:cx="135.06769" id="path15895" style="fill: rgb(255, 255, 255); fill-opacity: 1; stroke: none; stroke-width: 0.4; stroke-miterlimit: 4; stroke-dasharray: none; stroke-dashoffset: 0pt; stroke-opacity: 1;" sodipodi:type="arc"/>
        <path transform="matrix(0.980487, 0, 0, 1.0936, 32.9192, 23.2913)" d="M 120.8038,449.50473 A 17.681753,17.681753 0 1 1 85.440294,449.50473 A 17.681753,17.681753 0 1 1 120.8038,449.50473 z" sodipodi:ry="17.681753" sodipodi:rx="17.681753" sodipodi:cy="449.50473" sodipodi:cx="103.12205" id="path18810" style="fill: rgb(157, 134, 74); fill-opacity: 1; stroke: none; stroke-width: 0.4; stroke-miterlimit: 4; stroke-dasharray: none; stroke-dashoffset: 0pt; stroke-opacity: 1;" sodipodi:type="arc"/>
        <g id="g15887" style="stroke: none; stroke-opacity: 1;" transform="translate(1.2852, 13.0869)">
          <path sodipodi:nodetypes="ccccc" id="path12001" d="M 160,457.36218 L 160,542.36218 L 233.96749,542.36218 C 239.81338,514.11902 254.1769,484.05417 290,457.36218 L 160,457.36218" style="fill: rgb(157, 134, 74); fill-opacity: 1; fill-rule: evenodd; stroke: none; stroke-width: 0.4; stroke-linecap: butt; stroke-linejoin: miter; stroke-miterlimit: 4; stroke-dasharray: none; stroke-opacity: 1;"/>
          <path transform="matrix(1.13414, 0, 0, 1.00149, 9.24873, -0.469345)" sodipodi:open="true" sodipodi:end="4.7192496" sodipodi:start="1.5583845" d="M 135.37805,542.02207 A 25.005775,42.43681 0 1 1 135.23924,457.15272" sodipodi:ry="42.43681" sodipodi:rx="25.005775" sodipodi:cy="499.58853" sodipodi:cx="135.06769" id="path12974" style="opacity: 1; fill: rgb(157, 134, 74); fill-opacity: 1; stroke: none; stroke-width: 0.4; stroke-miterlimit: 4; stroke-dasharray: none; stroke-dashoffset: 0pt; stroke-opacity: 1;" sodipodi:type="arc"/>
        </g>
        <g id="g13017" transform="translate(6.58289, 26.9859)">
          <g transform="translate(-3.44668, -13.136)" id="g8065">
            <path sodipodi:type="arc" style="fill: rgb(255, 255, 255); fill-opacity: 1; stroke: none; stroke-width: 0.319829; stroke-miterlimit: 4; stroke-dasharray: none; stroke-dashoffset: 0pt; stroke-opacity: 1;" id="path7124" sodipodi:cx="326" sodipodi:cy="564.86218" sodipodi:rx="108" sodipodi:ry="108" d="M 434,564.86218 A 108,108 0 1 1 218,564.86218 A 108,108 0 1 1 434,564.86218 z" transform="matrix(1.32258, 0, 0, 1.32258, -60.5533, -178.739)"/>
            <path transform="matrix(1.25324, 0, 0, 1.25324, -37.9479, -139.57)" d="M 434,564.86218 A 108,108 0 1 1 218,564.86218 A 108,108 0 1 1 434,564.86218 z" sodipodi:ry="108" sodipodi:rx="108" sodipodi:cy="564.86218" sodipodi:cx="326" id="path9064" style="fill: rgb(157, 134, 74); fill-opacity: 1; stroke: none; stroke-width: 0.319829; stroke-miterlimit: 4; stroke-dasharray: none; stroke-dashoffset: 0pt; stroke-opacity: 1;" sodipodi:type="arc"/>
            <path sodipodi:type="arc" style="fill: rgb(255, 255, 255); fill-opacity: 1; stroke: none; stroke-width: 0.319829; stroke-miterlimit: 4; stroke-dasharray: none; stroke-dashoffset: 0pt; stroke-opacity: 1;" id="path9066" sodipodi:cx="326" sodipodi:cy="564.86218" sodipodi:rx="108" sodipodi:ry="108" d="M 434,564.86218 A 108,108 0 1 1 218,564.86218 A 108,108 0 1 1 434,564.86218 z" transform="matrix(1.04521, 0, 0, 1.04521, 29.8684, -22.0647)"/>
            <path transform="matrix(0.975872, 0, 0, 0.975872, 52.4738, 17.1039)" d="M 434,564.86218 A 108,108 0 1 1 218,564.86218 A 108,108 0 1 1 434,564.86218 z" sodipodi:ry="108" sodipodi:rx="108" sodipodi:cy="564.86218" sodipodi:cx="326" id="path9068" style="fill: rgb(157, 134, 74); fill-opacity: 1; stroke: none; stroke-width: 0.319829; stroke-miterlimit: 4; stroke-dasharray: none; stroke-dashoffset: 0pt; stroke-opacity: 1;" sodipodi:type="arc"/>
            <g id="g16873" transform="translate(-112.653, 19.9795)">
              <path transform="translate(111.976, -26.2949)" d="M 415.26017,574.65234 A 43.975811,43.975811 0 1 1 327.30855,574.65234 A 43.975811,43.975811 0 1 1 415.26017,574.65234 z" sodipodi:ry="43.975811" sodipodi:rx="43.975811" sodipodi:cy="574.65234" sodipodi:cx="371.28436" id="path12989" style="opacity: 1; fill: rgb(255, 255, 255); fill-opacity: 1; stroke: none; stroke-width: 0.423; stroke-miterlimit: 4; stroke-dasharray: none; stroke-dashoffset: 0pt; stroke-opacity: 1;" sodipodi:type="arc"/>
              <path transform="matrix(0.881442, 0, 0, 0.881442, 155.995, 41.8344)" sodipodi:type="arc" style="opacity: 1; fill: rgb(157, 134, 74); fill-opacity: 1; stroke: none; stroke-width: 0.423; stroke-miterlimit: 4; stroke-dasharray: none; stroke-dashoffset: 0pt; stroke-opacity: 1;" id="path13960" sodipodi:cx="371.28436" sodipodi:cy="574.65234" sodipodi:rx="43.975811" sodipodi:ry="43.975811" d="M 415.26017,574.65234 A 43.975811,43.975811 0 1 1 327.30855,574.65234 A 43.975811,43.975811 0 1 1 415.26017,574.65234 z"/>
              <path d="M 415.26017,574.65234 A 43.975811,43.975811 0 1 1 327.30855,574.65234 A 43.975811,43.975811 0 1 1 415.26017,574.65234 z" sodipodi:ry="43.975811" sodipodi:rx="43.975811" sodipodi:cy="574.65234" sodipodi:cx="371.28436" id="path13962" style="opacity: 1; fill: rgb(255, 255, 255); fill-opacity: 1; stroke: none; stroke-width: 0.423; stroke-miterlimit: 4; stroke-dasharray: none; stroke-dashoffset: 0pt; stroke-opacity: 1;" sodipodi:type="arc" transform="matrix(0.452619, 0, 0, 0.452619, 315.21, 288.259)"/>
              <path transform="matrix(0.328149, 0, 0, 0.328149, 361.424, 359.786)" sodipodi:type="arc" style="opacity: 1; fill: rgb(157, 134, 74); fill-opacity: 1; stroke: none; stroke-width: 0.423; stroke-miterlimit: 4; stroke-dasharray: none; stroke-dashoffset: 0pt; stroke-opacity: 1;" id="path13964" sodipodi:cx="371.28436" sodipodi:cy="574.65234" sodipodi:rx="43.975811" sodipodi:ry="43.975811" d="M 415.26017,574.65234 A 43.975811,43.975811 0 1 1 327.30855,574.65234 A 43.975811,43.975811 0 1 1 415.26017,574.65234 z"/>
            </g>
            <g id="g18945" transform="translate(-1.55332, -3.86399)">
              <rect style="fill: rgb(255, 255, 255); fill-opacity: 1; stroke: none; stroke-width: 0.422504; stroke-miterlimit: 4; stroke-dasharray: none; stroke-dashoffset: 0pt; stroke-opacity: 1;" id="rect18819" width="30" height="70" x="357" y="464.36218"/>
              <rect y="454.36218" x="361.63867" height="88.946678" width="20.722597" id="rect16879" style="fill: rgb(157, 134, 74); fill-opacity: 1; stroke: none; stroke-width: 0.422504; stroke-miterlimit: 4; stroke-dasharray: none; stroke-dashoffset: 0pt; stroke-opacity: 1;"/>
            </g>
            <g id="g18911" transform="translate(-1.55332, -3.86399)">
              <g transform="matrix(0.544639, 0.838671, -0.838671, 0.544639, 645.257, -301.148)" id="g18831">
                <rect style="fill: rgb(255, 255, 255); fill-opacity: 1; stroke: none; stroke-width: 0.422504; stroke-miterlimit: 4; stroke-dasharray: none; stroke-dashoffset: 0pt; stroke-opacity: 1;" id="rect18833" width="30" height="70" x="572" y="597.36218"/>
                <rect y="587.36218" x="576.63867" height="88.946678" width="20.722597" id="rect18835" style="fill: rgb(157, 134, 74); fill-opacity: 1; stroke: none; stroke-width: 0.422504; stroke-miterlimit: 4; stroke-dasharray: none; stroke-dashoffset: 0pt; stroke-opacity: 1;"/>
              </g>
              <g id="g18905" transform="matrix(-0.544639, 0.838671, 0.838671, 0.544639, 97.8595, -301.148)">
                <rect y="597.36218" x="572" height="70" width="30" id="rect18907" style="fill: rgb(255, 255, 255); fill-opacity: 1; stroke: none; stroke-width: 0.422504; stroke-miterlimit: 4; stroke-dasharray: none; stroke-dashoffset: 0pt; stroke-opacity: 1;"/>
                <rect style="fill: rgb(157, 134, 74); fill-opacity: 1; stroke: none; stroke-width: 0.422504; stroke-miterlimit: 4; stroke-dasharray: none; stroke-dashoffset: 0pt; stroke-opacity: 1;" id="rect18909" width="20.722597" height="88.946678" x="576.63867" y="587.36218"/>
              </g>
            </g>
            <g id="g18919" transform="matrix(1, 0, 0, -1, -1.67001, 1140.86)">
              <g id="g18921" transform="matrix(0.544639, 0.838671, -0.838671, 0.544639, 645.257, -301.148)">
                <rect y="597.36218" x="572" height="70" width="30" id="rect18923" style="fill: rgb(255, 255, 255); fill-opacity: 1; stroke: none; stroke-width: 0.422504; stroke-miterlimit: 4; stroke-dasharray: none; stroke-dashoffset: 0pt; stroke-opacity: 1;"/>
                <rect style="fill: rgb(157, 134, 74); fill-opacity: 1; stroke: none; stroke-width: 0.422504; stroke-miterlimit: 4; stroke-dasharray: none; stroke-dashoffset: 0pt; stroke-opacity: 1;" id="rect18925" width="20.722597" height="88.946678" x="576.63867" y="587.36218"/>
              </g>
              <g transform="matrix(-0.544639, 0.838671, 0.838671, 0.544639, 97.8595, -301.148)" id="g18927">
                <rect style="fill: rgb(255, 255, 255); fill-opacity: 1; stroke: none; stroke-width: 0.422504; stroke-miterlimit: 4; stroke-dasharray: none; stroke-dashoffset: 0pt; stroke-opacity: 1;" id="rect18929" width="30" height="70" x="572" y="597.36218"/>
                <rect y="587.36218" x="576.63867" height="88.946678" width="20.722597" id="rect18931" style="fill: rgb(157, 134, 74); fill-opacity: 1; stroke: none; stroke-width: 0.422504; stroke-miterlimit: 4; stroke-dasharray: none; stroke-dashoffset: 0pt; stroke-opacity: 1;"/>
              </g>
            </g>
            <g id="g18949" transform="translate(-1.55332, 144.136)">
              <rect y="464.36218" x="357" height="70" width="30" id="rect18951" style="fill: rgb(255, 255, 255); fill-opacity: 1; stroke: none; stroke-width: 0.422504; stroke-miterlimit: 4; stroke-dasharray: none; stroke-dashoffset: 0pt; stroke-opacity: 1;"/>
              <rect style="fill: rgb(157, 134, 74); fill-opacity: 1; stroke: none; stroke-width: 0.422504; stroke-miterlimit: 4; stroke-dasharray: none; stroke-dashoffset: 0pt; stroke-opacity: 1;" id="rect18953" width="20.722597" height="88.946678" x="361.63867" y="454.36218"/>
            </g>
          </g>
          <path sodipodi:nodetypes="ccccc" id="path9069" d="M 337.87146,587.93002 C 341.95368,591.26734 346.33898,594.40261 351.9843,596.69786 L 351.83644,659.16218 C 323.53362,655.52769 302.12028,641.57878 285.9,621.69786 L 337.92075,587.93002" style="fill: rgb(239, 0, 7); fill-opacity: 1; fill-rule: evenodd; stroke: rgb(239, 0, 7); stroke-width: 0.4; stroke-linecap: butt; stroke-linejoin: miter; stroke-miterlimit: 4; stroke-dasharray: none; stroke-opacity: 1;"/>
          <path style="fill: rgb(219, 0, 7); fill-opacity: 1; fill-rule: evenodd; stroke: rgb(219, 0, 7); stroke-width: 0.4; stroke-linecap: butt; stroke-linejoin: miter; stroke-miterlimit: 4; stroke-dasharray: none; stroke-opacity: 1;" d="M 396.31284,588.13002 C 392.23062,591.46734 387.84532,594.60261 382.2,596.89786 L 382.34786,659.36218 C 410.65068,655.72769 432.06402,641.77878 448.2843,621.89786 L 396.26355,588.13002" id="path11978" sodipodi:nodetypes="ccccc"/>
        </g>
        <g id="g6099" transform="translate(0.905481, 10.6633)">
          <path sodipodi:nodetypes="cccc" id="path2215" d="M 416.24318,578.29456 L 478.17079,570.75364 C 478.67112,586.25643 474.96159,599.955 469.68921,612.98377 L 416.08778,578.29456" style="fill: rgb(219, 0, 7); fill-opacity: 1; fill-rule: evenodd; stroke: none; stroke-width: 0.4; stroke-linecap: butt; stroke-linejoin: miter; stroke-miterlimit: 4; stroke-dasharray: none; stroke-opacity: 1;"/>
          <path sodipodi:nodetypes="ccccc" id="path4159" d="M 416.32854,578.03364 C 416.56402,576.99947 416.50285,576.18436 416.86858,573.29647 L 478,565.36218 C 478.29949,568.21116 478.08019,569.22424 478.06571,570.57368 L 416.32854,578.03364 z" style="fill: rgb(255, 255, 255); fill-opacity: 1; fill-rule: evenodd; stroke: rgb(255, 255, 255); stroke-width: 0.4; stroke-linecap: butt; stroke-linejoin: miter; stroke-miterlimit: 4; stroke-dasharray: none; stroke-opacity: 1;"/>
        </g>
        <g id="g6119" transform="translate(2.90548, 0.663318)">
          <path style="fill: rgb(255, 255, 255); fill-rule: evenodd; stroke: none; stroke-width: 0.43672; stroke-linecap: butt; stroke-linejoin: miter; stroke-miterlimit: 4; stroke-dasharray: none; stroke-opacity: 1;" d="M 504.7979,536.48914 L 585.0819,536.48914 C 582.5095,545.98021 580.09398,555.62267 568.59511,559.92856 C 550.18867,566.82107 511.94283,573.50888 511.94283,573.50888 C 511.23709,563.01274 508.83727,548.87054 504.7979,536.48914 z" id="path6119" sodipodi:nodetypes="ccscc"/>
          <path style="fill: rgb(255, 255, 255); fill-opacity: 1; fill-rule: evenodd; stroke: none; stroke-width: 0.388739; stroke-linecap: butt; stroke-linejoin: miter; stroke-miterlimit: 4; stroke-dasharray: none; stroke-opacity: 1;" d="M 448.93246,463.38427 L 658.54374,463.70012 L 651.15513,540.19742 L 508.00139,547.7109 C 500.26831,513.48471 474.25808,480.76449 448.93246,463.38427 z" id="path4177" sodipodi:nodetypes="ccccc"/>
          <path sodipodi:nodetypes="ccccc" id="path3206" d="M 456.35707,468.85181 L 724,469.11371 L 713.7381,531.47078 L 506.11913,541.73268 C 497.90062,510.66428 479.17503,488.10161 456.35707,468.85181 z" style="fill: rgb(157, 134, 74); fill-opacity: 1; fill-rule: evenodd; stroke: none; stroke-width: 0.4; stroke-linecap: butt; stroke-linejoin: miter; stroke-miterlimit: 4; stroke-dasharray: none; stroke-opacity: 1;"/>
          <path sodipodi:nodetypes="ccscc" id="path4179" d="M 504.77954,536.47078 L 578.7381,536.47078 C 576.32135,544.94572 574.5412,552.62589 563.7381,556.47078 C 546.44539,562.62536 511.65522,567.51222 511.65522,567.51222 C 510.18195,557.36973 508.09925,547.07488 504.77954,536.47078 z" style="fill: rgb(157, 134, 74); fill-opacity: 1; fill-rule: evenodd; stroke: none; stroke-width: 0.4; stroke-linecap: butt; stroke-linejoin: miter; stroke-miterlimit: 4; stroke-dasharray: none; stroke-opacity: 1;"/>
        </g>
      </g>
      <g id="g2298">
        <path style="fill: rgb(157, 134, 74); fill-opacity: 1;" i:knockout="Off" d="M 426.58285,352.91759 C 426.58285,356.31467 425.86923,365.65072 425.50947,368.20147 L 466.99387,368.20147 C 464.46671,357.16393 463.38153,341.87711 463.02177,329.9903 C 463.02177,330.83957 462.2993,306.21373 462.2993,306.21373 C 462.2993,304.5152 463.02177,301.97034 464.0981,301.11812 C 465.54009,299.42254 466.99092,299.42254 468.79267,299.42254 C 470.59441,298.57622 473.83815,298.57622 474.20675,305.36741 L 475.28013,330.84251 C 475.64579,342.72637 475.64579,358.86542 474.20675,368.20442 L 514.23737,368.20442 C 513.88056,364.8103 512.79538,356.32056 512.43857,353.76981 C 517.48995,364.80735 528.30632,370.74928 542.73799,370.74928 C 551.39581,370.74928 557.89212,367.35515 562.93465,363.95513 C 562.93465,364.80735 565.10205,368.20147 565.10205,368.20147 L 639.40713,368.20147 C 636.16045,357.16393 633.996,341.87711 632.91082,329.9903 L 622.4542,246.7738 L 584.21354,239.97965 C 587.46612,251.02014 589.62468,267.15329 591.06666,278.19378 L 596.83756,331.68883 C 597.92273,341.03079 598.6452,351.21906 598.6452,362.25954 L 598.6452,363.10586 L 597.20322,359.71469 C 594.31629,352.91759 592.87431,344.42196 591.79208,331.68883 L 590.35009,314.70347 C 588.18269,287.52983 573.39716,275.64597 540.92739,275.64597 C 535.51331,275.64597 521.81591,276.49524 513.51785,279.04305 L 515.67641,309.60786 L 524.33423,304.5093 C 531.55301,300.26886 536.96709,298.57032 543.45161,298.57032 C 548.50594,298.57032 551.74967,300.26886 553.1946,303.66298 C 547.06395,304.5093 540.21082,306.20784 532.62934,309.60786 C 521.08754,314.70347 513.87761,322.34393 510.63093,330.83662 C 510.63093,330.83662 510.63093,330.83662 510.63093,329.98735 L 509.5487,301.96444 C 508.82328,284.13276 497.28149,272.24595 479.60609,272.24595 C 471.67664,272.24595 464.46081,274.79376 457.96745,279.04305 C 457.60769,278.19378 457.24203,277.34451 456.88227,276.49524 L 455.44028,273.09817 L 422.25394,271.39963 C 423.69593,277.34746 425.86628,294.32693 426.22309,300.27475 C 424.4243,291.78207 419.73563,282.43717 411.07191,275.64597 C 404.21584,271.39963 395.56097,268.85183 386.54929,268.85183 C 374.28503,268.85183 361.66101,273.94744 353.36295,282.43422 C 344.70513,290.9269 340.37917,302.81076 340.01056,316.402 C 336.76978,313.00788 332.44382,309.60786 327.39539,307.90932 L 312.24421,300.2718 L 311.52174,300.2718 C 307.9153,298.57327 307.54964,297.724 307.54964,296.87473 C 307.9153,295.17619 311.52174,293.47766 316.21336,293.47766 C 322.69788,293.47766 331.71545,296.87473 338.93424,301.11812 L 339.65081,273.94744 C 334.23967,271.39963 326.66998,269.70109 315.8477,269.70109 C 310.07681,269.70109 299.25158,270.55331 289.87719,275.64892 C 287.35298,277.34746 285.18263,279.04599 283.02407,280.74748 L 283.38383,273.10112 C 274.72601,271.40258 265.34867,271.40258 253.80688,282.44012 C 253.43828,281.59085 252.72466,277.34746 252.00809,275.64892 L 216.2947,277.34746 C 218.81892,287.53278 219.18162,301.97034 218.45326,314.70642 L 217.73669,328.29471 L 217.73669,329.9903 C 217.37693,336.78739 217.01127,344.42491 216.2947,351.21906 C 213.40778,341.87711 210.16699,329.14103 207.63688,318.95571 L 189.95854,239.13333 L 139.46246,246.7738 C 139.82222,247.62602 140.54469,250.17382 140.90445,252.71868 C 141.26421,256.11575 141.26421,262.90695 136.57554,277.34746 C 128.27748,300.27475 116.73863,335.08886 105.5566,359.71764 C 104.11461,363.10881 101.22179,368.20442 101.22179,368.20442 L 140.54469,368.20442 C 141.26421,362.26249 143.79137,352.07127 146.31558,344.42786 C 151.72672,344.42786 165.79273,344.42786 172.28314,343.58154 C 173.72513,349.52642 175.17006,357.16688 175.53572,362.26544 L 176.25229,368.20737 L 254.89501,368.20737 C 253.08441,355.47424 253.80983,338.49183 254.5264,329.14693 C 255.25182,318.10939 257.41332,310.46597 262.10494,306.21963 C 265.70843,301.97624 269.67758,301.12402 272.56451,301.12402 C 272.20475,316.41085 281.94479,323.20205 290.59966,327.44839 L 306.10766,335.09475 C 311.52174,338.49183 311.52174,339.33815 311.52174,341.03963 C 311.16198,343.58449 306.83307,344.43081 302.86392,344.43081 C 294.56881,344.43081 283.38678,339.33815 271.11957,325.74985 L 270.40005,361.41912 C 280.1401,366.51178 292.39846,369.05959 303.22073,369.05959 C 321.25589,369.05959 340.37917,360.56985 345.42465,344.43081 C 354.44813,361.41912 372.12352,369.05959 389.43621,369.05959 C 404.94715,369.05074 416.486,363.95218 426.58285,352.91759 z M 155.69292,318.10054 C 157.86032,312.15566 159.66207,307.063 162.9117,297.724 C 165.07321,307.063 166.15838,313.00788 167.24061,317.25422 C 162.9117,318.10054 160.74725,318.10054 155.69292,318.10054 z M 376.45243,308.75859 C 376.45243,296.87473 380.78134,291.77912 385.11025,291.77912 C 386.55224,291.77912 389.79597,290.9269 391.23796,296.87473 C 391.96337,299.41959 392.32313,301.11518 392.32313,301.96739 C 392.32313,305.36447 390.52139,306.21079 388.35104,306.21079 L 388.35104,307.063 C 388.35104,307.063 382.22333,308.75859 376.45243,311.30639 C 376.45243,310.46008 376.45243,309.60786 376.45243,308.75859 z M 417.57117,333.38737 C 409.99853,340.18447 404.58739,344.42196 395.56392,344.42196 C 388.35104,343.57564 384.02213,339.3293 381.49791,333.38737 C 389.0735,330.83957 418.29364,319.80203 426.5799,316.402 C 426.5799,323.19615 426.94851,330.83957 426.94851,330.83957 C 426.94851,335.93518 426.94851,341.03079 426.94851,345.27418 L 417.57117,333.38737 z M 552.11238,345.27123 C 545.26515,345.27123 543.81727,340.18152 543.45456,336.78444 C 543.81432,333.38737 544.89654,328.29176 555.72177,324.89469 C 556.08153,329.13808 556.44718,332.5381 556.44718,332.5381 L 556.44718,335.93223 C 556.80399,338.48298 556.80399,341.03079 557.16375,343.57564 C 555.72472,344.42196 553.92297,344.42196 552.11238,345.27123" id="path8269"/>
        <path style="fill: rgb(255, 255, 255);" i:knockout="Off" d="M 333.52605,278.19378 C 329.91371,277.34451 324.50257,275.64597 315.85065,275.64597 C 308.99458,275.64597 299.97995,277.34451 293.12683,280.74453 C 285.18853,285.83719 279.41763,292.62839 279.05787,300.27475 C 278.33245,312.15861 284.46901,317.25717 293.48659,321.50056 C 299.62314,324.89469 305.39109,328.29471 308.99458,329.9903 C 313.68914,332.5381 318.01805,335.08886 317.64945,341.03079 C 317.29559,346.97272 311.8815,351.21906 302.86687,351.21906 C 295.28538,351.21906 284.47196,346.1205 276.89047,339.33225 L 276.53071,357.16393 C 283.02702,360.56101 293.48659,362.26249 303.22368,362.26249 C 319.81685,362.26249 340.38212,354.61908 340.74188,335.93518 C 341.09869,321.50056 331.00183,316.40495 324.87118,313.01083 C 318.73462,310.46302 312.60692,307.06595 309.72,306.21373 C 306.83307,304.5152 301.06218,302.81666 301.42488,296.02841 C 302.14146,290.08353 308.99458,287.53278 316.21926,287.53278 C 322.34696,287.53278 328.47467,289.23132 333.16924,291.78207" id="path8271"/>
        <path style="fill: rgb(255, 255, 255);" i:knockout="Off" d="M 185.27577,246.77085 L 147.0351,251.86941 C 147.76052,256.96502 146.31853,267.15329 142.34938,279.04305 C 134.41108,301.96444 121.4273,340.18152 111.3275,362.25954 L 135.13355,362.25954 C 136.57554,354.61613 138.38023,347.82198 141.98667,338.48298 L 177.33452,337.63076 C 178.7765,344.42196 181.30367,355.4654 181.66343,362.25954 L 213.76459,362.25954 C 209.79544,352.91759 204.74996,333.38737 201.50033,319.80203 L 185.27577,246.77085 z M 147.0351,324.04247 L 164.35369,273.94744 L 174.8103,323.19615" id="path8273"/>
        <path style="fill: rgb(255, 255, 255);" i:knockout="Off" d="M 276.89047,278.19378 L 276.1739,295.17619 C 270.403,294.32693 263.19012,296.02546 257.41332,301.96739 C 252.36784,307.06595 249.11821,314.70347 248.39869,328.29471 C 247.67328,339.33225 247.31647,352.07127 248.03894,362.26249 L 220.98042,362.26249 C 222.78217,352.07127 223.50758,340.18742 223.86734,329.14398 L 224.59276,315.56158 C 225.30933,304.51815 225.30933,293.48356 223.51053,283.29234 L 247.31647,282.44307 C 248.39869,285.84014 249.11526,291.78797 248.75845,297.73285 C 259.22097,281.5879 269.32077,278.19378 276.89047,278.19378" id="path8275"/>
        <path style="fill: rgb(255, 255, 255);" i:knockout="Off" d="M 617.04602,251.86941 L 592.51455,247.62307 C 595.04171,258.66356 595.76713,266.30107 597.20911,277.34451 L 602.98001,330.83957 C 604.06519,341.87711 605.13857,352.06832 604.77881,362.25954 L 631.47178,362.25954 C 628.95347,352.06832 627.86829,341.87711 626.78606,330.83957" id="path8277"/>
        <path style="fill: rgb(255, 255, 255);" i:knockout="Off" d="M 507.02743,362.25954 C 505.58545,352.06832 504.86593,341.87711 504.50027,330.83957 L 503.42394,302.81371 C 502.70147,287.52983 494.04366,279.04305 479.61199,279.04305 C 471.68254,279.04305 462.30225,281.58495 454.361,291.77912 C 454.00124,289.22837 452.91902,282.43422 451.47408,279.04305 L 429.83543,278.19378 C 431.63423,288.38205 432.35965,298.57327 432.72236,309.60786 L 433.07917,330.83662 C 433.43893,341.87416 433.07917,352.06538 432.3626,362.2566 L 459.41533,362.2566 C 457.97334,352.06538 457.24793,341.87416 456.88817,330.83662 L 456.1716,307.06005 C 455.81184,298.57032 462.30225,292.62249 468.79562,292.62249 C 476.36531,292.62249 479.97765,297.72105 480.33741,305.35857 L 481.41964,330.83367 C 481.7794,341.87121 481.7794,352.06243 481.05988,362.25365" id="path8279"/>
        <path style="fill: rgb(255, 255, 255);" i:knockout="Off" d="M 591.43527,362.25954 C 588.18269,353.76686 586.38389,343.57564 585.65847,332.5381 L 584.21649,315.55569 C 582.7745,295.17619 574.11963,281.58495 540.93034,281.58495 C 535.1624,281.58495 526.86139,282.43422 520.00827,284.13276 L 521.09049,299.41959 C 527.94656,295.17619 534.79969,291.77912 543.45456,291.77912 C 552.47803,291.77912 560.04773,296.02251 560.77609,308.75859 C 552.11238,309.60786 544.17997,311.30639 535.15945,315.55569 C 525.05964,319.79908 514.60303,328.29176 515.67936,341.87711 C 516.76158,357.16393 528.30338,363.95218 542.73799,363.95218 C 553.92002,363.95218 561.48971,358.85952 565.81862,353.76686 C 566.54404,357.16099 567.62627,359.71469 568.70555,362.25954 L 591.43527,362.25954 L 591.43527,362.25954 z M 552.11238,351.21906 C 544.18292,351.21906 537.68366,346.97272 537.32685,337.63371 C 537.32685,328.29471 543.09775,320.6513 561.48971,318.10349 L 562.57489,332.54105 C 562.9317,337.63666 562.9317,341.03373 563.65712,345.27418 C 561.13585,348.67125 556.80694,350.36979 552.11238,351.21906" id="path8281"/>
        <path style="fill: rgb(255, 255, 255);" i:knockout="Off" d="M 407.47432,280.74158 C 401.33776,276.49524 394.12488,274.79376 386.55224,274.79376 C 368.87389,274.79376 345.4276,287.52688 346.15302,319.79908 C 346.50983,352.91464 371.76081,363.10586 389.43916,363.10586 C 404.9501,363.10586 414.32744,357.16099 421.90303,349.52052 L 416.48895,341.87711 C 412.5198,345.27123 406.03233,350.36979 395.56687,350.36979 C 384.38483,349.52052 377.1749,341.87711 373.2028,329.9903 L 422.25984,312.15861 C 420.81491,296.02546 415.04401,286.68351 407.47432,280.74158 z M 390.52139,312.15861 L 371.04424,319.80203 C 370.67859,316.40495 370.31883,313.00788 370.31883,308.76154 C 370.31883,289.23132 381.14405,285.83719 384.74459,285.83719 C 390.52434,284.98792 395.56982,288.385 397.37746,295.17914 C 399.53602,302.81371 398.8165,309.60786 390.52139,312.15861" id="path8283"/>
      </g>
    </g>
  </g>
</svg>